<?xml version='1.0' encoding='UTF-8'?>
<svg width="41mm" height="41mm" version="1.1" viewBox="0 0 41 41" xmlns="http://www.w3.org/2000/svg"><path d="M4,4H5V5H4zM5,4H6V5H5zM6,4H7V5H6zM7,4H8V5H7zM8,4H9V5H8zM9,4H10V5H9zM10,4H11V5H10zM13,4H14V5H13zM15,4H16V5H15zM17,4H18V5H17zM18,4H19V5H18zM20,4H21V5H20zM21,4H22V5H21zM23,4H24V5H23zM24,4H25V5H24zM26,4H27V5H26zM27,4H28V5H27zM28,4H29V5H28zM30,4H31V5H30zM31,4H32V5H31zM32,4H33V5H32zM33,4H34V5H33zM34,4H35V5H34zM35,4H36V5H35zM36,4H37V5H36zM4,5H5V6H4zM10,5H11V6H10zM12,5H13V6H12zM17,5H18V6H17zM19,5H20V6H19zM20,5H21V6H20zM21,5H22V6H21zM22,5H23V6H22zM26,5H27V6H26zM28,5H29V6H28zM30,5H31V6H30zM36,5H37V6H36zM4,6H5V7H4zM6,6H7V7H6zM7,6H8V7H7zM8,6H9V7H8zM10,6H11V7H10zM14,6H15V7H14zM16,6H17V7H16zM18,6H19V7H18zM22,6H23V7H22zM23,6H24V7H23zM24,6H25V7H24zM25,6H26V7H25zM26,6H27V7H26zM27,6H28V7H27zM28,6H29V7H28zM30,6H31V7H30zM32,6H33V7H32zM33,6H34V7H33zM34,6H35V7H34zM36,6H37V7H36zM4,7H5V8H4zM6,7H7V8H6zM7,7H8V8H7zM8,7H9V8H8zM10,7H11V8H10zM14,7H15V8H14zM16,7H17V8H16zM19,7H20V8H19zM20,7H21V8H20zM24,7H25V8H24zM27,7H28V8H27zM28,7H29V8H28zM30,7H31V8H30zM32,7H33V8H32zM33,7H34V8H33zM34,7H35V8H34zM36,7H37V8H36zM4,8H5V9H4zM6,8H7V9H6zM7,8H8V9H7zM8,8H9V9H8zM10,8H11V9H10zM13,8H14V9H13zM14,8H15V9H14zM18,8H19V9H18zM19,8H20V9H19zM20,8H21V9H20zM21,8H22V9H21zM23,8H24V9H23zM26,8H27V9H26zM30,8H31V9H30zM32,8H33V9H32zM33,8H34V9H33zM34,8H35V9H34zM36,8H37V9H36zM4,9H5V10H4zM10,9H11V10H10zM12,9H13V10H12zM16,9H17V10H16zM17,9H18V10H17zM18,9H19V10H18zM20,9H21V10H20zM21,9H22V10H21zM24,9H25V10H24zM26,9H27V10H26zM30,9H31V10H30zM36,9H37V10H36zM4,10H5V11H4zM5,10H6V11H5zM6,10H7V11H6zM7,10H8V11H7zM8,10H9V11H8zM9,10H10V11H9zM10,10H11V11H10zM12,10H13V11H12zM14,10H15V11H14zM16,10H17V11H16zM18,10H19V11H18zM20,10H21V11H20zM22,10H23V11H22zM24,10H25V11H24zM26,10H27V11H26zM28,10H29V11H28zM30,10H31V11H30zM31,10H32V11H31zM32,10H33V11H32zM33,10H34V11H33zM34,10H35V11H34zM35,10H36V11H35zM36,10H37V11H36zM12,11H13V12H12zM13,11H14V12H13zM14,11H15V12H14zM16,11H17V12H16zM18,11H19V12H18zM22,11H23V12H22zM24,11H25V12H24zM25,11H26V12H25zM28,11H29V12H28zM8,12H9V13H8zM9,12H10V13H9zM10,12H11V13H10zM11,12H12V13H11zM13,12H14V13H13zM16,12H17V13H16zM20,12H21V13H20zM26,12H27V13H26zM27,12H28V13H27zM30,12H31V13H30zM31,12H32V13H31zM35,12H36V13H35zM5,13H6V14H5zM6,13H7V14H6zM8,13H9V14H8zM9,13H10V14H9zM11,13H12V14H11zM13,13H14V14H13zM22,13H23V14H22zM23,13H24V14H23zM24,13H25V14H24zM25,13H26V14H25zM29,13H30V14H29zM30,13H31V14H30zM31,13H32V14H31zM34,13H35V14H34zM35,13H36V14H35zM4,14H5V15H4zM6,14H7V15H6zM9,14H10V15H9zM10,14H11V15H10zM12,14H13V15H12zM13,14H14V15H13zM16,14H17V15H16zM17,14H18V15H17zM20,14H21V15H20zM21,14H22V15H21zM22,14H23V15H22zM25,14H26V15H25zM26,14H27V15H26zM27,14H28V15H27zM28,14H29V15H28zM30,14H31V15H30zM31,14H32V15H31zM34,14H35V15H34zM35,14H36V15H35zM7,15H8V16H7zM8,15H9V16H8zM12,15H13V16H12zM13,15H14V16H13zM14,15H15V16H14zM15,15H16V16H15zM16,15H17V16H16zM17,15H18V16H17zM20,15H21V16H20zM23,15H24V16H23zM25,15H26V16H25zM26,15H27V16H26zM27,15H28V16H27zM29,15H30V16H29zM31,15H32V16H31zM32,15H33V16H32zM36,15H37V16H36zM4,16H5V17H4zM5,16H6V17H5zM6,16H7V17H6zM9,16H10V17H9zM10,16H11V17H10zM12,16H13V17H12zM13,16H14V17H13zM17,16H18V17H17zM19,16H20V17H19zM20,16H21V17H20zM21,16H22V17H21zM24,16H25V17H24zM26,16H27V17H26zM30,16H31V17H30zM31,16H32V17H31zM32,16H33V17H32zM34,16H35V17H34zM35,16H36V17H35zM36,16H37V17H36zM4,17H5V18H4zM5,17H6V18H5zM7,17H8V18H7zM8,17H9V18H8zM9,17H10V18H9zM12,17H13V18H12zM13,17H14V18H13zM18,17H19V18H18zM22,17H23V18H22zM23,17H24V18H23zM24,17H25V18H24zM29,17H30V18H29zM33,17H34V18H33zM34,17H35V18H34zM36,17H37V18H36zM6,18H7V19H6zM7,18H8V19H7zM10,18H11V19H10zM11,18H12V19H11zM15,18H16V19H15zM17,18H18V19H17zM20,18H21V19H20zM21,18H22V19H21zM25,18H26V19H25zM26,18H27V19H26zM27,18H28V19H27zM30,18H31V19H30zM32,18H33V19H32zM33,18H34V19H33zM34,18H35V19H34zM35,18H36V19H35zM5,19H6V20H5zM6,19H7V20H6zM7,19H8V20H7zM11,19H12V20H11zM13,19H14V20H13zM16,19H17V20H16zM17,19H18V20H17zM20,19H21V20H20zM25,19H26V20H25zM30,19H31V20H30zM31,19H32V20H31zM36,19H37V20H36zM5,20H6V21H5zM7,20H8V21H7zM9,20H10V21H9zM10,20H11V21H10zM12,20H13V21H12zM13,20H14V21H13zM14,20H15V21H14zM15,20H16V21H15zM17,20H18V21H17zM20,20H21V21H20zM21,20H22V21H21zM22,20H23V21H22zM23,20H24V21H23zM25,20H26V21H25zM26,20H27V21H26zM28,20H29V21H28zM30,20H31V21H30zM32,20H33V21H32zM33,20H34V21H33zM34,20H35V21H34zM35,20H36V21H35zM36,20H37V21H36zM4,21H5V22H4zM5,21H6V22H5zM6,21H7V22H6zM7,21H8V22H7zM8,21H9V22H8zM9,21H10V22H9zM11,21H12V22H11zM13,21H14V22H13zM15,21H16V22H15zM16,21H17V22H16zM17,21H18V22H17zM23,21H24V22H23zM24,21H25V22H24zM26,21H27V22H26zM27,21H28V22H27zM29,21H30V22H29zM30,21H31V22H30zM31,21H32V22H31zM33,21H34V22H33zM34,21H35V22H34zM6,22H7V23H6zM9,22H10V23H9zM10,22H11V23H10zM13,22H14V23H13zM21,22H22V23H21zM23,22H24V23H23zM24,22H25V23H24zM27,22H28V23H27zM29,22H30V23H29zM31,22H32V23H31zM33,22H34V23H33zM35,22H36V23H35zM4,23H5V24H4zM5,23H6V24H5zM7,23H8V24H7zM9,23H10V24H9zM13,23H14V24H13zM14,23H15V24H14zM21,23H22V24H21zM24,23H25V24H24zM25,23H26V24H25zM27,23H28V24H27zM28,23H29V24H28zM30,23H31V24H30zM32,23H33V24H32zM35,23H36V24H35zM36,23H37V24H36zM4,24H5V25H4zM5,24H6V25H5zM8,24H9V25H8zM10,24H11V25H10zM12,24H13V25H12zM14,24H15V25H14zM16,24H17V25H16zM18,24H19V25H18zM23,24H24V25H23zM26,24H27V25H26zM28,24H29V25H28zM30,24H31V25H30zM31,24H32V25H31zM32,24H33V25H32zM34,24H35V25H34zM36,24H37V25H36zM4,25H5V26H4zM7,25H8V26H7zM8,25H9V26H8zM11,25H12V26H11zM12,25H13V26H12zM13,25H14V26H13zM14,25H15V26H14zM15,25H16V26H15zM16,25H17V26H16zM17,25H18V26H17zM21,25H22V26H21zM23,25H24V26H23zM24,25H25V26H24zM26,25H27V26H26zM27,25H28V26H27zM29,25H30V26H29zM31,25H32V26H31zM34,25H35V26H34zM7,26H8V27H7zM8,26H9V27H8zM9,26H10V27H9zM10,26H11V27H10zM12,26H13V27H12zM13,26H14V27H13zM17,26H18V27H17zM19,26H20V27H19zM22,26H23V27H22zM23,26H24V27H23zM24,26H25V27H24zM25,26H26V27H25zM27,26H28V27H27zM28,26H29V27H28zM30,26H31V27H30zM34,26H35V27H34zM6,27H7V28H6zM11,27H12V28H11zM14,27H15V28H14zM15,27H16V28H15zM18,27H19V28H18zM19,27H20V28H19zM20,27H21V28H20zM21,27H22V28H21zM22,27H23V28H22zM24,27H25V28H24zM25,27H26V28H25zM26,27H27V28H26zM27,27H28V28H27zM29,27H30V28H29zM30,27H31V28H30zM32,27H33V28H32zM4,28H5V29H4zM5,28H6V29H5zM6,28H7V29H6zM7,28H8V29H7zM9,28H10V29H9zM10,28H11V29H10zM16,28H17V29H16zM17,28H18V29H17zM18,28H19V29H18zM24,28H25V29H24zM26,28H27V29H26zM28,28H29V29H28zM29,28H30V29H29zM30,28H31V29H30zM31,28H32V29H31zM32,28H33V29H32zM34,28H35V29H34zM35,28H36V29H35zM12,29H13V30H12zM13,29H14V30H13zM14,29H15V30H14zM15,29H16V30H15zM21,29H22V30H21zM22,29H23V30H22zM23,29H24V30H23zM24,29H25V30H24zM26,29H27V30H26zM28,29H29V30H28zM32,29H33V30H32zM4,30H5V31H4zM5,30H6V31H5zM6,30H7V31H6zM7,30H8V31H7zM8,30H9V31H8zM9,30H10V31H9zM10,30H11V31H10zM12,30H13V31H12zM14,30H15V31H14zM15,30H16V31H15zM16,30H17V31H16zM19,30H20V31H19zM20,30H21V31H20zM21,30H22V31H21zM22,30H23V31H22zM24,30H25V31H24zM25,30H26V31H25zM28,30H29V31H28zM30,30H31V31H30zM32,30H33V31H32zM33,30H34V31H33zM34,30H35V31H34zM4,31H5V32H4zM10,31H11V32H10zM12,31H13V32H12zM15,31H16V32H15zM16,31H17V32H16zM17,31H18V32H17zM18,31H19V32H18zM19,31H20V32H19zM23,31H24V32H23zM25,31H26V32H25zM26,31H27V32H26zM28,31H29V32H28zM32,31H33V32H32zM36,31H37V32H36zM4,32H5V33H4zM6,32H7V33H6zM7,32H8V33H7zM8,32H9V33H8zM10,32H11V33H10zM12,32H13V33H12zM16,32H17V33H16zM17,32H18V33H17zM18,32H19V33H18zM19,32H20V33H19zM23,32H24V33H23zM24,32H25V33H24zM28,32H29V33H28zM29,32H30V33H29zM30,32H31V33H30zM31,32H32V33H31zM32,32H33V33H32zM35,32H36V33H35zM36,32H37V33H36zM4,33H5V34H4zM6,33H7V34H6zM7,33H8V34H7zM8,33H9V34H8zM10,33H11V34H10zM13,33H14V34H13zM16,33H17V34H16zM17,33H18V34H17zM18,33H19V34H18zM21,33H22V34H21zM23,33H24V34H23zM24,33H25V34H24zM25,33H26V34H25zM27,33H28V34H27zM29,33H30V34H29zM30,33H31V34H30zM31,33H32V34H31zM32,33H33V34H32zM35,33H36V34H35zM4,34H5V35H4zM6,34H7V35H6zM7,34H8V35H7zM8,34H9V35H8zM10,34H11V35H10zM14,34H15V35H14zM15,34H16V35H15zM16,34H17V35H16zM18,34H19V35H18zM24,34H25V35H24zM25,34H26V35H25zM27,34H28V35H27zM29,34H30V35H29zM30,34H31V35H30zM32,34H33V35H32zM33,34H34V35H33zM34,34H35V35H34zM4,35H5V36H4zM10,35H11V36H10zM13,35H14V36H13zM14,35H15V36H14zM17,35H18V36H17zM18,35H19V36H18zM19,35H20V36H19zM20,35H21V36H20zM21,35H22V36H21zM22,35H23V36H22zM25,35H26V36H25zM26,35H27V36H26zM28,35H29V36H28zM29,35H30V36H29zM32,35H33V36H32zM4,36H5V37H4zM5,36H6V37H5zM6,36H7V37H6zM7,36H8V37H7zM8,36H9V37H8zM9,36H10V37H9zM10,36H11V37H10zM14,36H15V37H14zM16,36H17V37H16zM17,36H18V37H17zM21,36H22V37H21zM22,36H23V37H22zM23,36H24V37H23zM24,36H25V37H24zM25,36H26V37H25zM28,36H29V37H28zM30,36H31V37H30zM31,36H32V37H31zM32,36H33V37H32zM33,36H34V37H33zM36,36H37V37H36zM4,37H5V38H4zM6,37H7V38H6zM7,37H8V38H7zM8,37H9V38H8zM10,37H11V38H10zM13,37H14V38H13zM17,37H18V38H17zM18,37H19V38H18zM20,37H21V38H20zM22,37H23V38H22zM31,37H32V38H31zM34,37H35V38H34zM35,37H36V38H35zM36,37H37V38H36zM37,37H38V38H37zM4,38H5V39H4zM6,38H7V39H6zM7,38H8V39H7zM8,38H9V39H8zM10,38H11V39H10zM14,38H15V39H14zM18,38H19V39H18zM20,38H21V39H20zM21,38H22V39H21zM22,38H23V39H22zM23,38H24V39H23zM24,38H25V39H24zM25,38H26V39H25zM26,38H27V39H26zM32,38H33V39H32zM34,38H35V39H34zM35,38H36V39H35zM38,38H39V39H38zM39,38H40V39H39zM4,39H5V40H4zM10,39H11V40H10zM15,39H16V40H15zM16,39H17V40H16zM20,39H21V40H20zM21,39H22V40H21zM22,39H23V40H22zM28,39H29V40H28zM30,39H31V40H30zM31,39H32V40H31zM32,39H33V40H32zM33,39H34V40H33zM36,39H37V40H36zM37,39H38V40H37zM38,39H39V40H38zM39,39H40V40H39zM4,40H5V41H4zM5,40H6V41H5zM6,40H7V41H6zM7,40H8V41H7zM8,40H9V41H8zM9,40H10V41H9zM10,40H11V41H10zM13,40H14V41H13zM14,40H15V41H14zM16,40H17V41H16zM17,40H18V41H17zM20,40H21V41H20zM27,40H28V41H27zM30,40H31V41H30zM31,40H32V41H31zM34,40H35V41H34zM35,40H36V41H35zM36,40H37V41H36zM37,40H38V41H37zM38,40H39V41H38zM39,40H40V41H39zM40,40H41V41H40z" id="qr-path" fill="#000000" fill-opacity="1" fill-rule="nonzero" stroke="none"/></svg>